<svg width="120" height="40" viewBox="0 0 120 40" xmlns="http://www.w3.org/2000/svg"><g transform="translate(16 9)"><path d="M20.750112,11.6081199 C20.6459919,11.6092759 20.3840125,11.6659227 20.1074787,11.6659227 C19.2342141,11.6659227 18.9319301,11.2497425 18.9319301,10.7063961 L18.9319301,7.08678433 L20.7120466,7.08678433 C20.8128079,7.08678433 20.8911778,6.99429984 20.8911778,6.86713367 L20.8911778,4.90183824 C20.8911778,4.79779319 20.8016122,4.7053087 20.7120466,4.7053087 L18.9319301,4.7053087 L18.9319301,2.26603026 C18.9319301,2.17354577 18.8759516,2.11574297 18.7751903,2.11574297 L16.3569189,2.11574297 C16.2561576,2.11574297 16.2001791,2.17354577 16.2001791,2.26603026 L16.2001791,4.77467207 C16.2001791,4.77467207 14.9798477,5.08680723 14.9014778,5.09836779 C14.8119122,5.12148891 14.7559337,5.20241284 14.7559337,5.29489733 L14.7559337,6.86713367 C14.7559337,6.99429984 14.8454993,7.08678433 14.9462606,7.08678433 L16.1889834,7.08678433 L16.1889834,10.8786484 C16.1889834,13.6994254 18.0922526,13.9884394 19.3909539,13.9884394 C19.984326,13.9884394 20.7008509,13.7919099 20.8128079,13.7341071 C20.8799821,13.710986 20.9135692,13.630062 20.9135692,13.5491381 L20.9135692,11.8150539 C20.9167526,11.7133781 20.8471166,11.6247276 20.750112,11.6069638 L20.750112,11.6081199 Z M47.2794447,9.06479637 C47.2794447,6.97233478 46.4621585,6.6948813 45.6000896,6.78736579 C44.9283475,6.83360804 44.3909539,7.18042488 44.3909539,7.18042488 L44.3909539,11.2497425 C44.3909539,11.2497425 44.9395432,11.6428015 45.7568294,11.6659227 C46.9099866,11.7006044 47.2794447,11.2728636 47.2794447,9.06479637 Z M50,8.87982739 C50,12.8450999 48.7572772,13.9780349 46.5853112,13.9780349 C44.7492163,13.9780349 43.7639946,13.0185083 43.7639946,13.0185083 C43.7639946,13.0185083 43.7192118,13.5502942 43.6632333,13.6196575 C43.6296462,13.6890209 43.5736677,13.712142 43.5064935,13.712142 L41.8495298,13.712142 C41.7375728,13.712142 41.6368115,13.6196575 41.6368115,13.5156125 L41.6592029,0.671828859 C41.6592029,0.567783807 41.7487685,0.475299316 41.8495298,0.475299316 L44.2342141,0.475299316 C44.3349754,0.475299316 44.424541,0.567783807 44.424541,0.671828859 L44.424541,5.03016047 C44.424541,5.03016047 45.3425884,4.41745072 46.6860725,4.41745072 L46.6748768,4.3943296 C48.0183609,4.3943296 50,4.91455486 50,8.87982739 L50,8.87982739 Z M40.2373489,4.70646476 L37.8862517,4.70646476 C37.763099,4.70646476 37.6959248,4.79894925 37.6959248,4.92611542 L37.6959248,11.2150608 C37.6959248,11.2150608 37.0801612,11.6659227 36.2404837,11.6659227 C35.4008061,11.6659227 35.1545007,11.2728636 35.1545007,10.4058215 L35.1545007,4.91339881 C35.1545007,4.80935375 35.0649351,4.71686926 34.9641738,4.71686926 L32.5682938,4.71686926 C32.4675325,4.71686926 32.3779669,4.80935375 32.3779669,4.91339881 L32.3779669,10.8208456 C32.3779669,13.3641691 33.7550381,14 35.6471115,14 C37.2033139,14 38.4684281,13.1098368 38.4684281,13.1098368 C38.4684281,13.1098368 38.5244066,13.5606987 38.5579937,13.630062 C38.5803851,13.6878648 38.658755,13.7341071 38.7371249,13.7341071 L40.2373489,13.7341071 C40.3605016,13.7341071 40.4276758,13.6416226 40.4276758,13.5375775 L40.4500672,4.90183824 C40.4500672,4.79779319 40.3605016,4.7053087 40.2373489,4.7053087 L40.2373489,4.70646476 Z M13.7035378,4.6949042 L11.3188536,4.6949042 C11.2180923,4.6949042 11.1285266,4.79894925 11.1285266,4.92611542 L11.1285266,13.4115674 C11.1285266,13.6427787 11.2740708,13.7237026 11.4643977,13.7237026 L13.6139722,13.7237026 C13.8378863,13.7237026 13.8938648,13.6196575 13.8938648,13.4115674 L13.8938648,4.89027768 C13.8938648,4.78623263 13.8042991,4.69374814 13.7035378,4.69374814 L13.7035378,4.6949042 Z M12.5279893,0.787434472 C11.6659203,0.787434472 10.9829825,1.49262871 10.9829825,2.38279193 C10.9829825,3.27295515 11.6659203,3.97814939 12.5279893,3.97814939 C13.3676668,3.97814939 14.0506046,3.27295515 14.0506046,2.38279193 C14.0506046,1.49262871 13.3676668,0.787434472 12.5279893,0.787434472 Z M30.9897,0.498420439 L28.6274071,0.498420439 C28.5266458,0.498420439 28.4370802,0.590904929 28.4370802,0.694949981 L28.4370802,5.42321956 L24.7313032,5.42321956 L24.7313032,0.693793925 C24.7313032,0.589748873 24.6417376,0.497264383 24.5409763,0.497264383 L22.156292,0.497264383 C22.0555307,0.497264383 21.9659651,0.589748873 21.9659651,0.693793925 L21.9659651,13.5375775 C21.9659651,13.6416226 22.0667264,13.7341071 22.156292,13.7341071 L24.5409763,13.7341071 C24.6417376,13.7341071 24.7313032,13.6416226 24.7313032,13.5375775 L24.7313032,8.04631092 L28.4370802,8.04631092 L28.4146888,13.5375775 C28.4146888,13.6416226 28.5042544,13.7341071 28.6050157,13.7341071 L30.9897,13.7341071 C31.0904613,13.7341071 31.1800269,13.6416226 31.1800269,13.5375775 L31.1800269,0.693793925 C31.1800269,0.589748873 31.0904613,0.497264383 30.9897,0.497264383 L30.9897,0.498420439 Z M9.86341245,6.18506055 L9.86341245,12.8208227 C9.86341245,12.867065 9.85221675,12.9479889 9.79623824,12.97111 C9.79623824,12.97111 8.39677564,14 6.09046126,14 C3.30273175,14 0,13.0982762 0,7.1561477 C0,1.21401918 2.88849082,-0.0114003152 5.70980743,7.95657028e-05 C8.15047022,7.95657028e-05 9.13569189,0.566627751 9.29243171,0.670672802 C9.33721451,0.728475609 9.35960591,0.774717854 9.35960591,0.832520661 L8.88938648,2.89030058 C8.88938648,2.99434563 8.78862517,3.1215118 8.66547246,3.08683012 C8.26242723,2.95966394 7.65785938,2.70533159 6.23600537,2.70533159 C4.59023735,2.70533159 2.82131661,3.19087517 2.82131661,7.01742097 C2.82131661,10.8439668 4.50067174,11.2948287 5.70980743,11.2948287 C6.73981191,11.2948287 7.10927004,11.1676625 7.10927004,11.1676625 L7.10927004,8.50873337 L5.46350202,8.50873337 C5.34034931,8.50873337 5.2507837,8.41624888 5.2507837,8.31220383 L5.2507837,6.18506055 C5.2507837,6.0810155 5.34034931,5.98853101 5.46350202,5.98853101 L9.65069413,5.98853101 C9.77384684,5.98853101 9.86341245,6.0810155 9.86341245,6.18506055 Z" transform="translate(38 5)"/><path d="M11.5,0 C5.14933036,0 0,5.04848105 0,11.2805068 C0,16.2651452 3.29598214,20.4885826 7.86517857,21.9815186 C8.44017857,22.0846491 8.65066964,21.7359699 8.65066964,21.4364005 C8.65066964,21.166297 8.64040179,20.4591168 8.63526786,19.5162098 C5.43683036,20.1988352 4.75915179,18.0036299 4.75915179,18.0036299 C4.23549107,16.7022218 3.48080357,16.3535427 3.48080357,16.3535427 C2.43861607,15.6512734 3.5578125,15.6660064 3.5578125,15.6660064 C4.71294643,15.7445819 5.31875,16.8299071 5.31875,16.8299071 C6.34553571,18.5536589 8.00892857,18.0576506 8.66607143,17.7679031 C8.76875,17.041079 9.06651786,16.5401597 9.39508929,16.2602342 C6.84352679,15.9753977 4.15848214,15.0079359 4.15848214,10.6862789 C4.15848214,9.45362453 4.60513393,8.4468749 5.33928571,7.6611191 C5.22120536,7.37628262 4.82589286,6.22711475 5.45223214,4.67524704 C5.45223214,4.67524704 6.41741071,4.37076666 8.61473214,5.82932588 C9.53370536,5.57886621 10.5142857,5.45609187 11.4948661,5.45118089 C12.4703125,5.45609187 13.4560268,5.57886621 14.375,5.82932588 C16.5723214,4.37076666 17.5323661,4.67524704 17.5323661,4.67524704 C18.1587054,6.22711475 17.7633929,7.37628262 17.6453125,7.6611191 C18.3794643,8.45178587 18.8261161,9.4585355 18.8261161,10.6862789 C18.8261161,15.0177578 16.1359375,15.9704867 13.5741071,16.2504122 C13.9848214,16.5990914 14.3544643,17.2866277 14.3544643,18.3375761 C14.3544643,19.845245 14.3390625,21.0631665 14.3390625,21.4314896 C14.3390625,21.731059 14.5444196,22.0846491 15.1296875,21.9716967 C19.7091518,20.4836716 23,16.2602342 23,11.2805068 C23,5.04848105 17.8506696,0 11.5,0 Z"/></g></svg>