<svg width="98" height="22" viewBox="0 0 98 22" xmlns="http://www.w3.org/2000/svg"><path d="M29.0501567,15.753877 C28.9043887,15.7554459 28.5376176,15.8323236 28.1504702,15.8323236 C26.9278997,15.8323236 26.5047022,15.2675076 26.5047022,14.530109 L26.5047022,9.61777874 L28.9968652,9.61777874 C29.137931,9.61777874 29.2476489,9.49226407 29.2476489,9.31968141 L29.2476489,6.65249476 C29.2476489,6.51129076 29.1222571,6.3857761 28.9968652,6.3857761 L26.5047022,6.3857761 L26.5047022,3.07532679 C26.5047022,2.94981212 26.4263323,2.87136546 26.2852665,2.87136546 L22.8996865,2.87136546 C22.7586207,2.87136546 22.6802508,2.94981212 22.6802508,3.07532679 L22.6802508,6.47991209 C22.6802508,6.47991209 20.9717868,6.90352409 20.862069,6.91921342 C20.7366771,6.95059209 20.6583072,7.06041742 20.6583072,7.18593209 L20.6583072,9.31968141 C20.6583072,9.49226407 20.7836991,9.61777874 20.9247649,9.61777874 L22.6645768,9.61777874 L22.6645768,14.76388 C22.6645768,18.5920773 25.3291536,18.9843107 27.1473354,18.9843107 C27.9780564,18.9843107 28.9811912,18.717592 29.137931,18.6391453 C29.2319749,18.6077667 29.2789969,18.4979413 29.2789969,18.388116 L29.2789969,16.034716 C29.2834537,15.8967274 29.1859633,15.7764161 29.0501567,15.752308 L29.0501567,15.753877 Z M66.1912226,12.3022237 C66.1912226,9.46245434 65.0470219,9.08591034 63.8401254,9.21142501 C62.8996865,9.27418234 62.1473354,9.74486234 62.1473354,9.74486234 L62.1473354,15.2675076 C62.1473354,15.2675076 62.9153605,15.800945 64.0595611,15.8323236 C65.6739812,15.8793916 66.1912226,15.2988863 66.1912226,12.3022237 Z M70,12.0511943 C70,17.4326356 68.2601881,18.9701903 65.2194357,18.9701903 C62.6489028,18.9701903 61.2695925,17.6679756 61.2695925,17.6679756 C61.2695925,17.6679756 61.2068966,18.3896849 61.1285266,18.4838209 C61.0815047,18.5779569 61.0031348,18.6093356 60.9090909,18.6093356 L58.5893417,18.6093356 C58.4326019,18.6093356 58.2915361,18.4838209 58.2915361,18.3426169 L58.322884,0.911767737 C58.322884,0.770563738 58.4482759,0.645049072 58.5893417,0.645049072 L61.9278997,0.645049072 C62.0689655,0.645049072 62.1943574,0.770563738 62.1943574,0.911767737 L62.1943574,6.82664636 C62.1943574,6.82664636 63.4796238,5.9951117 65.3605016,5.9951117 L65.3448276,5.96373303 C67.2257053,5.96373303 70,6.66975303 70,12.0511943 L70,12.0511943 Z M56.3322884,6.38734503 L53.0407524,6.38734503 C52.8683386,6.38734503 52.7742947,6.51285969 52.7742947,6.68544236 L52.7742947,15.2204396 C52.7742947,15.2204396 51.9122257,15.8323236 50.7366771,15.8323236 C49.5611285,15.8323236 49.2163009,15.2988863 49.2163009,14.1221863 L49.2163009,6.66818409 C49.2163009,6.52698009 49.0909091,6.40146543 48.9498433,6.40146543 L45.5956113,6.40146543 C45.4545455,6.40146543 45.3291536,6.52698009 45.3291536,6.66818409 L45.3291536,14.6854334 C45.3291536,18.1370867 47.2570533,19 49.9059561,19 C52.0846395,19 53.8557994,17.7919213 53.8557994,17.7919213 C53.8557994,17.7919213 53.9341693,18.4038053 53.9811912,18.4979413 C54.0125392,18.576388 54.1222571,18.6391453 54.2319749,18.6391453 L56.3322884,18.6391453 C56.5047022,18.6391453 56.5987461,18.5136307 56.5987461,18.3724267 L56.630094,6.65249476 C56.630094,6.51129076 56.5047022,6.3857761 56.3322884,6.3857761 L56.3322884,6.38734503 Z M19.184953,6.3716557 L15.846395,6.3716557 C15.7053292,6.3716557 15.5799373,6.51285969 15.5799373,6.68544236 L15.5799373,18.2014129 C15.5799373,18.5151996 15.7836991,18.6250249 16.0501567,18.6250249 L19.0595611,18.6250249 C19.3730408,18.6250249 19.4514107,18.4838209 19.4514107,18.2014129 L19.4514107,6.63680543 C19.4514107,6.49560143 19.3260188,6.37008676 19.184953,6.37008676 L19.184953,6.3716557 Z M17.539185,1.06866107 C16.3322884,1.06866107 15.3761755,2.02571039 15.3761755,3.23378905 C15.3761755,4.44186771 16.3322884,5.39891704 17.539185,5.39891704 C18.7147335,5.39891704 19.6708464,4.44186771 19.6708464,3.23378905 C19.6708464,2.02571039 18.7147335,1.06866107 17.539185,1.06866107 Z M43.3855799,0.676427738 L40.0783699,0.676427738 C39.9373041,0.676427738 39.8119122,0.801942404 39.8119122,0.943146403 L39.8119122,7.36008369 L34.6238245,7.36008369 L34.6238245,0.94157747 C34.6238245,0.800373471 34.4984326,0.674858805 34.3573668,0.674858805 L31.0188088,0.674858805 C30.8777429,0.674858805 30.7523511,0.800373471 30.7523511,0.94157747 L30.7523511,18.3724267 C30.7523511,18.5136307 30.8934169,18.6391453 31.0188088,18.6391453 L34.3573668,18.6391453 C34.4984326,18.6391453 34.6238245,18.5136307 34.6238245,18.3724267 L34.6238245,10.9199934 L39.8119122,10.9199934 L39.7805643,18.3724267 C39.7805643,18.5136307 39.9059561,18.6391453 40.0470219,18.6391453 L43.3855799,18.6391453 C43.5266458,18.6391453 43.6520376,18.5136307 43.6520376,18.3724267 L43.6520376,0.94157747 C43.6520376,0.800373471 43.5266458,0.674858805 43.3855799,0.674858805 L43.3855799,0.676427738 Z M13.8087774,8.39401075 L13.8087774,17.399688 C13.8087774,17.4624453 13.7931034,17.5722707 13.7147335,17.6036493 C13.7147335,17.6036493 11.7554859,19 8.52664577,19 C4.62382445,19 0,17.776232 0,9.71191474 C0,1.64759746 4.04388715,-0.0154718564 7.99373041,0.000107982025 C11.4106583,0.000107982025 12.7899687,0.768994804 13.0094044,0.910198803 C13.0721003,0.988645469 13.1034483,1.0514028 13.1034483,1.12984947 L12.4451411,3.92255078 C12.4451411,4.06375478 12.3040752,4.23633744 12.1316614,4.18926945 C11.5673981,4.01668678 10.7210031,3.67152145 8.73040752,3.67152145 C6.42633229,3.67152145 3.94984326,4.33047344 3.94984326,9.52364274 C3.94984326,14.716812 6.30094044,15.328696 7.99373041,15.328696 C9.43573668,15.328696 9.95297806,15.1561134 9.95297806,15.1561134 L9.95297806,11.5475667 L7.64890282,11.5475667 C7.47648903,11.5475667 7.35109718,11.4220521 7.35109718,11.2808481 L7.35109718,8.39401075 C7.35109718,8.25280675 7.47648903,8.12729208 7.64890282,8.12729208 L13.5109718,8.12729208 C13.6833856,8.12729208 13.8087774,8.25280675 13.8087774,8.39401075 Z" transform="translate(28 2)"/><path d="M11.5,0 C5.14933036,0 0,5.04848105 0,11.2805068 C0,16.2651452 3.29598214,20.4885826 7.86517857,21.9815186 C8.44017857,22.0846491 8.65066964,21.7359699 8.65066964,21.4364005 C8.65066964,21.166297 8.64040179,20.4591168 8.63526786,19.5162098 C5.43683036,20.1988352 4.75915179,18.0036299 4.75915179,18.0036299 C4.23549107,16.7022218 3.48080357,16.3535427 3.48080357,16.3535427 C2.43861607,15.6512734 3.5578125,15.6660064 3.5578125,15.6660064 C4.71294643,15.7445819 5.31875,16.8299071 5.31875,16.8299071 C6.34553571,18.5536589 8.00892857,18.0576506 8.66607143,17.7679031 C8.76875,17.041079 9.06651786,16.5401597 9.39508929,16.2602342 C6.84352679,15.9753977 4.15848214,15.0079359 4.15848214,10.6862789 C4.15848214,9.45362453 4.60513393,8.4468749 5.33928571,7.6611191 C5.22120536,7.37628262 4.82589286,6.22711475 5.45223214,4.67524704 C5.45223214,4.67524704 6.41741071,4.37076666 8.61473214,5.82932588 C9.53370536,5.57886621 10.5142857,5.45609187 11.4948661,5.45118089 C12.4703125,5.45609187 13.4560268,5.57886621 14.375,5.82932588 C16.5723214,4.37076666 17.5323661,4.67524704 17.5323661,4.67524704 C18.1587054,6.22711475 17.7633929,7.37628262 17.6453125,7.6611191 C18.3794643,8.45178587 18.8261161,9.4585355 18.8261161,10.6862789 C18.8261161,15.0177578 16.1359375,15.9704867 13.5741071,16.2504122 C13.9848214,16.5990914 14.3544643,17.2866277 14.3544643,18.3375761 C14.3544643,19.845245 14.3390625,21.0631665 14.3390625,21.4314896 C14.3390625,21.731059 14.5444196,22.0846491 15.1296875,21.9716967 C19.7091518,20.4836716 23,16.2602342 23,11.2805068 C23,5.04848105 17.8506696,0 11.5,0 Z"/></svg>