<svg width="256" height="256" viewBox="0 0 256 256" xmlns="http://www.w3.org/2000/svg"><g fill="none" fill-rule="evenodd"><rect fill="#F1545B" width="256" height="256"/><g transform="translate(28 53)" fill="#FFF" fill-rule="nonzero"><path d="M52.7193997 17.717252C33.8525018 17.717252 20.8755583 27.3093948 20.8755583 50.4840119 20.8755583 73.6586289 33.7210093 82.8535442 51.7808157 82.8535442 59.4924094 82.7795577 67.1196794 81.2477505 74.2569544 78.3395946 74.5244735 83.2688275 72.1168016 91.7911643 68.9065724 96.0568466 63.1526446 98.8554954 54.850484 100.850661 45.4918497 100.850661 16.8582375 100.850661 0 82.4698585 0 51.8336828.00453422204 18.7825441 19.6694552 0 48.5705865 0 56.197148 0 63.9552019 1.35418487 68.9065724 4.26116838 71.9853091 8.65775526 73.3229046 16.5165414 72.6518398 22.375648 66.2313814 19.3151902 60.3459611 17.717252 52.7193997 17.717252ZM121.761999 90.8432349C118.819289 96.7113693 112.530323 100.435378 103.298647 100.435378 91.5096692 100.435378 81.3575461 94.5672433 81.3575461 79.1250218 81.3575461 62.8748034 93.1465234 56.6139554 108.653563 56.6139554 112.777191 56.5633827 116.883866 57.1480802 120.827949 58.347312L120.827949 56.4830508C120.827949 48.3579416 116.815162 45.4283884 107.982498 45.4283884 100.482325 45.423318 93.1077324 47.345013 86.5719014 51.00763 84.9667868 45.8120741 85.6333175 37.5560603 88.7120542 33.1594735 93.5319323 30.4962432 101.825024 28.7628866 111.727765 28.7628866 130.993675 28.7628866 140.225351 35.5338109 140.225351 55.2687984L140.225351 78.3125109C140.225351 82.4427748 142.097985 83.3726484 144.759573 83.3726484 146.792863 83.4086375 148.792531 82.8533043 150.513501 81.7747102 151.048539 87.1011707 149.443424 93.6283418 147.035752 97.3568641 144.224535 99.2211253 140.479267 100.421836 135.931443 100.421836 128.173389 100.421836 124.142465 97.0905411 122.818472 90.8296931L121.761999 90.8432349ZM121.22696 71.1308172C118.412708 70.0399358 115.414144 69.4974585 112.394296 69.532879 104.636242 69.532879 100.754948 72.7287553 100.754948 77.7934067 100.754948 82.9889627 104.636242 84.8532238 109.986624 84.8532238 114.26693 84.8532238 118.551769 83.499039 121.22696 80.1903139L121.22696 71.1308172Z"/><path d="M180.929062,47.8478653 L198.789363,47.8478653 C199.596454,46.2408993 200,42.8825208 200,39.5376842 C200,36.1928476 199.596454,32.8389831 198.789363,31.2275031 L180.929062,31.2275031 L180.929062,11.3841808 C173.406788,11.5195993 166.292593,13.2619838 161.454578,16.7422389 L161.454578,31.2139612 L153.800812,31.2139612 C152.055136,35.5022133 151.116552,42.0474402 151.116552,47.8298095 L161.459113,47.8298095 L161.196128,94.9103035 C161.196128,100.096831 160.289283,106.727823 157.310299,108.808754 C143.131787,118.798125 114.294135,113.963685 87.8324152,111.223717 C49.8174976,107.287553 16.9851958,102.114567 11.5305266,123.054779 C8.64676143,134.118469 12.3920288,141.187314 16.0330091,145.173132 C23.3557777,153.176364 36.2783105,155 46.5347208,155 C51.3568467,154.994692 56.1713708,154.618919 60.93541,153.876027 C65.9853975,153.059295 69.4153596,148.323268 68.5982453,143.295329 C67.7820853,138.266789 62.998481,134.718825 57.974563,135.648698 C47.4324968,137.607752 32.55118,141.968228 26.8425945,135.725435 C24.9110159,133.617421 25.2465483,128.439921 26.8425945,126.837469 C31.0866263,120.517939 58.4053141,122.932902 85.909905,126.629827 C116.289193,129.789592 147.743091,134.217776 165.603392,125.325296 C172.595162,121.84504 180.929062,113.742501 180.929062,94.9103035 L180.929062,47.8478653 Z"/></g></g></svg>