<svg width="256" height="256" viewBox="0 0 256 256" xmlns="http://www.w3.org/2000/svg"><g fill="none" fill-rule="evenodd"><rect fill="#F1545B" width="256" height="256"/><path d="M102.750916,104.292969 C106.65977,104.292969 110.2099,102.969401 113.401307,100.322266 C116.592713,97.6751302 119.12852,94.1373698 121.008728,89.7089844 C122.888937,85.280599 123.829041,80.3697917 123.829041,74.9765625 C123.829041,69.5338542 122.888937,64.5859375 121.008728,60.1328125 C119.12852,55.6796875 116.592713,52.1419271 113.401307,49.5195312 C110.2099,46.8971354 106.65977,45.5859375 102.750916,45.5859375 C98.7925826,45.5859375 95.2300826,46.8971354 92.0634159,49.5195312 C88.8967492,52.1419271 86.3733117,55.6796875 84.4931034,60.1328125 C82.6128951,64.5859375 81.6727909,69.5338542 81.6727909,74.9765625 C81.6727909,80.3697917 82.6128951,85.280599 84.4931034,89.7089844 C86.3733117,94.1373698 88.8967492,97.6751302 92.0634159,100.322266 C95.2300826,102.969401 98.7925826,104.292969 102.750916,104.292969 Z M154.258728,104.292969 C158.167583,104.292969 161.717713,102.969401 164.909119,100.322266 C168.100525,97.6751302 170.636333,94.1373698 172.516541,89.7089844 C174.396749,85.280599 175.336853,80.3697917 175.336853,74.9765625 C175.336853,69.5338542 174.396749,64.5859375 172.516541,60.1328125 C170.636333,55.6796875 168.100525,52.1419271 164.909119,49.5195312 C161.717713,46.8971354 158.167583,45.5859375 154.258728,45.5859375 C150.349874,45.5859375 146.787374,46.8971354 143.571228,49.5195312 C140.355083,52.1419271 137.819275,55.6796875 135.963807,60.1328125 C134.108338,64.5859375 133.180603,69.5338542 133.180603,74.9765625 C133.180603,80.3697917 134.108338,85.280599 135.963807,89.7089844 C137.819275,94.1373698 140.355083,97.6751302 143.571228,100.322266 C146.787374,102.969401 150.349874,104.292969 154.258728,104.292969 Z M64.0829471,150.679688 C67.9918013,150.679688 71.5543013,149.35612 74.7704471,146.708984 C77.986593,144.061849 80.5224003,140.511719 82.377869,136.058594 C84.2333378,131.605469 85.1610721,126.657552 85.1610721,121.214844 C85.1610721,115.821615 84.2333378,110.910807 82.377869,106.482422 C80.5224003,102.054036 77.986593,98.516276 74.7704471,95.8691406 C71.5543013,93.2220052 67.9918013,91.8984375 64.0829471,91.8984375 C60.1246138,91.8984375 56.5621138,93.2220052 53.3954471,95.8691406 C50.2287805,98.516276 47.7177128,102.054036 45.862244,106.482422 C44.0067753,110.910807 43.0790409,115.821615 43.0790409,121.214844 C43.0790409,126.657552 44.0067753,131.605469 45.862244,136.058594 C47.7177128,140.511719 50.2287805,144.061849 53.3954471,146.708984 C56.5621138,149.35612 60.1246138,150.679688 64.0829471,150.679688 Z M192.926697,150.679688 C196.88503,150.679688 200.44753,149.35612 203.614197,146.708984 C206.780864,144.061849 209.291932,140.511719 211.1474,136.058594 C213.002869,131.605469 213.930603,126.657552 213.930603,121.214844 C213.930603,115.821615 213.002869,110.910807 211.1474,106.482422 C209.291932,102.054036 206.780864,98.516276 203.614197,95.8691406 C200.44753,93.2220052 196.88503,91.8984375 192.926697,91.8984375 C189.017843,91.8984375 185.455343,93.2220052 182.239197,95.8691406 C179.023051,98.516276 176.487244,102.054036 174.631775,106.482422 C172.776307,110.910807 171.848572,115.821615 171.848572,121.214844 C171.848572,126.657552 172.776307,131.605469 174.631775,136.058594 C176.487244,140.511719 179.023051,144.061849 182.239197,146.708984 C185.455343,149.35612 189.017843,150.679688 192.926697,150.679688 Z M160.12201,211.167969 C165.713155,211.167969 170.636333,209.91862 174.891541,207.419922 C179.146749,204.921224 182.461853,201.457682 184.836853,197.029297 C187.211853,192.600911 188.399353,187.467448 188.399353,181.628906 C188.399353,176.977865 187.595317,172.982422 185.987244,169.642578 C184.379171,166.302734 182.338155,163.408203 179.864197,160.958984 C177.390239,158.509766 174.91628,156.270833 172.442322,154.242188 C170.364197,152.559896 168.3974,150.902344 166.541932,149.269531 C164.686463,147.636719 163.09076,145.80599 161.754822,143.777344 C160.71576,142.24349 159.726176,140.598307 158.786072,138.841797 C157.845968,137.085286 156.881124,135.192708 155.891541,133.164062 C154.060812,129.255208 152.131124,125.482422 150.102478,121.845703 C148.073833,118.208984 145.414327,115.227865 142.123963,112.902344 C138.833598,110.576823 134.293885,109.414062 128.504822,109.414062 C122.71576,109.414062 118.176046,110.576823 114.885682,112.902344 C111.595317,115.227865 108.935812,118.208984 106.907166,121.845703 C104.87852,125.482422 102.948833,129.255208 101.118103,133.164062 C100.12852,135.192708 99.1636763,137.072917 98.2235721,138.804688 C97.283468,140.536458 96.3186242,142.19401 95.3290409,143.777344 C93.9931034,145.75651 92.3850305,147.57487 90.5048221,149.232422 C88.6246138,150.889974 86.6454471,152.559896 84.5673221,154.242188 C82.0933638,156.270833 79.6194055,158.509766 77.1454471,160.958984 C74.6714888,163.408203 72.6304732,166.302734 71.0224003,169.642578 C69.4143273,172.982422 68.6102909,176.977865 68.6102909,181.628906 C68.6102909,187.467448 69.7977909,192.600911 72.1727909,197.029297 C74.5477909,201.457682 77.8628951,204.921224 82.1181034,207.419922 C86.3733117,209.91862 91.2964888,211.167969 96.8876346,211.167969 C100.845968,211.167969 104.358989,210.735026 107.426697,209.869141 C110.494405,209.003255 113.339458,208.125 115.961853,207.234375 C118.039978,206.541667 120.068624,205.935547 122.047791,205.416016 C124.026958,204.896484 126.179301,204.636719 128.504822,204.636719 C130.830343,204.636719 132.970317,204.896484 134.924744,205.416016 C136.879171,205.935547 138.920187,206.541667 141.047791,207.234375 C143.620708,208.125 146.44102,209.003255 149.508728,209.869141 C152.576437,210.735026 156.114197,211.167969 160.12201,211.167969 Z" fill="#FFF" fill-rule="nonzero"/></g></svg>